<svg width="28" height="22" viewBox="0 0 28 22" fill="none" xmlns="http://www.w3.org/2000/svg">
<path d="M23.7187 1.8425C21.9062 0.98175 19.9682 0.356196 17.942 0C17.6932 0.456631 17.4025 1.07081 17.2021 1.55938C15.0482 1.23062 12.9142 1.23062 10.8 1.55938C10.5996 1.07081 10.3023 0.456631 10.0513 0C8.02294 0.356196 6.08271 0.984048 4.27022 1.84705C0.614417 7.45436 -0.376613 12.9224 0.118903 18.3128C2.54363 20.1507 4.89348 21.2672 7.20367 21.9977C7.77407 21.2009 8.28279 20.3539 8.72104 19.4612C7.88638 19.1393 7.08695 18.742 6.33159 18.2808C6.53198 18.1302 6.728 17.9726 6.91738 17.8105C11.5246 19.9977 16.5304 19.9977 21.0825 17.8105C21.2741 17.9726 21.4701 18.1302 21.6683 18.2808C20.9107 18.7443 20.1091 19.1415 19.2744 19.4635C19.7127 20.3539 20.2192 21.2032 20.7918 22C23.1042 21.2694 25.4563 20.153 27.881 18.3128C28.4624 12.064 26.8878 6.64613 23.7187 1.8425ZM9.34871 14.9977C7.96568 14.9977 6.83148 13.6872 6.83148 12.0913C6.83148 10.4955 7.94146 9.18267 9.34871 9.18267C10.756 9.18267 11.8902 10.4932 11.8659 12.0913C11.8681 13.6872 10.756 14.9977 9.34871 14.9977ZM18.6512 14.9977C17.2682 14.9977 16.134 13.6872 16.134 12.0913C16.134 10.4955 17.2439 9.18267 18.6512 9.18267C20.0584 9.18267 21.1926 10.4932 21.1684 12.0913C21.1684 13.6872 20.0584 14.9977 18.6512 14.9977Z" fill="#7D6BF1"/>
</svg>
