<svg width="442" height="28" viewBox="0 0 442 28" fill="none" xmlns="http://www.w3.org/2000/svg">
<path d="M254.504 10.8531L254.504 16.2329L263.401 16.2329L263.401 21.8831L247.627 21.8831L247.627 5.36754L269.139 5.36755L269.138 0L241.888 -2.38233e-06L241.888 27.2506L269.138 27.2506L269.139 10.8531L254.504 10.8531Z" fill="#DAE7EB"/>
<path d="M219.948 10.8531L219.948 16.2329L228.845 16.2329L228.845 21.8831L213.071 21.8831L213.071 5.36754L234.583 5.36755L234.583 0L207.332 -2.38233e-06L207.332 27.2506L234.583 27.2506L234.583 10.8531L219.948 10.8531Z" fill="#DAE7EB"/>
<path d="M185.393 10.8531L185.393 16.2329L194.289 16.2329L194.289 21.8831L178.515 21.8831L178.515 5.36754L200.027 5.36755L200.027 0L172.777 -2.38233e-06L172.777 27.2506L200.027 27.2506L200.027 10.8531L185.393 10.8531Z" fill="#DAE7EB"/>
<path d="M150.837 10.8531L150.837 16.2329L159.734 16.2329L159.734 21.8831L143.96 21.8831L143.96 5.36754L165.472 5.36755L165.471 0L138.221 -2.38233e-06L138.221 27.2506L165.471 27.2506L165.472 10.8531L150.837 10.8531Z" fill="#DAE7EB"/>
<path d="M116.282 10.8531L116.282 16.2329L125.179 16.2329L125.179 21.8831L109.405 21.8831L109.405 5.36754L130.917 5.36755L130.917 0L103.666 -2.38233e-06L103.666 27.2506L130.917 27.2506L130.917 10.8531L116.282 10.8531Z" fill="#DAE7EB"/>
<path d="M427.28 10.8531L427.28 16.2329L436.177 16.2329L436.177 21.8831L420.403 21.8831L420.403 5.36754L441.915 5.36755L441.915 0L414.664 -2.38233e-06L414.664 27.2506L441.915 27.2506L441.915 10.8531L427.28 10.8531Z" fill="#DAE7EB"/>
<path d="M81.7267 10.8531L81.7267 16.2329L90.6232 16.2329L90.6232 21.8831L74.8493 21.8831L74.8493 5.36754L96.3613 5.36755L96.3609 0L69.1107 -2.38233e-06L69.1107 27.2506L96.3609 27.2506L96.3613 10.8531L81.7267 10.8531Z" fill="#DAE7EB"/>
<path d="M392.725 10.8531L392.725 16.2329L401.621 16.2329L401.621 21.8831L385.847 21.8831L385.847 5.36754L407.359 5.36755L407.359 0L380.109 -2.38233e-06L380.109 27.2506L407.359 27.2506L407.359 10.8531L392.725 10.8531Z" fill="#DAE7EB"/>
<path d="M47.1711 10.8531L47.1711 16.2329L56.0676 16.2329L56.0676 21.8831L40.2936 21.8831L40.2936 5.36754L61.8057 5.36755L61.8052 0L34.555 -2.38233e-06L34.555 27.2506L61.8052 27.2506L61.8057 10.8531L47.1711 10.8531Z" fill="#DAE7EB"/>
<path d="M358.17 10.8531L358.17 16.2329L367.067 16.2329L367.067 21.8831L351.293 21.8831L351.293 5.36754L372.805 5.36755L372.804 0L345.554 -2.38233e-06L345.554 27.2506L372.804 27.2506L372.805 10.8531L358.17 10.8531Z" fill="#DAE7EB"/>
<path d="M12.6164 10.8531L12.6164 16.2329L21.5129 16.2329L21.5129 21.8831L5.73891 21.8831L5.73892 5.36754L27.251 5.36755L27.2505 0L0.000352859 -2.38233e-06L0.000350477 27.2506L27.2505 27.2506L27.251 10.8531L12.6164 10.8531Z" fill="#DAE7EB"/>
<path d="M323.614 10.8531L323.614 16.2329L332.511 16.2329L332.511 21.8831L316.737 21.8831L316.737 5.36754L338.249 5.36755L338.249 0L310.998 -2.38233e-06L310.998 27.2506L338.249 27.2506L338.249 10.8531L323.614 10.8531Z" fill="#DAE7EB"/>
<path d="M289.059 10.8531L289.059 16.2329L297.955 16.2329L297.955 21.8831L282.181 21.8831L282.181 5.36754L303.693 5.36755L303.693 0L276.443 -2.38233e-06L276.443 27.2506L303.693 27.2506L303.693 10.8531L289.059 10.8531Z" fill="#DAE7EB"/>
</svg>
