<svg width="26" height="21" viewBox="0 0 26 21" fill="none" xmlns="http://www.w3.org/2000/svg">
<path d="M26 2.48611C25.0434 2.90817 24.0153 3.19242 22.9363 3.32055C24.0381 2.66484 24.8842 1.62582 25.2818 0.387613C24.2515 0.994873 23.1097 1.43632 21.8942 1.67427C20.9224 0.643868 19.5347 0 18.0007 0C14.5567 0 12.0261 3.1935 12.8039 6.50866C8.372 6.28794 4.44167 4.1776 1.81025 0.970109C0.41275 3.35285 1.0855 6.4699 3.46017 8.04835C2.587 8.02035 1.76367 7.7824 1.04542 7.3851C0.986917 9.84106 2.75817 12.1387 5.3235 12.6502C4.57275 12.8526 3.7505 12.9 2.91417 12.7406C3.59233 14.8466 5.56183 16.3788 7.8975 16.4219C5.655 18.1693 2.82967 18.95 0 18.6183C2.36058 20.1225 5.16533 21 8.177 21C18.0808 21 23.6763 12.6868 23.3383 5.23062C24.3804 4.48231 25.285 3.54881 26 2.48611V2.48611Z" fill="#41B0EF"/>
</svg>
